<mxfile host="Electron" modified="2024-03-22T23:55:11.023Z" agent="Mozilla/5.0 (X11; Linux x86_64) AppleWebKit/537.36 (KHTML, like Gecko) draw.io/23.1.5 Chrome/120.0.6099.109 Electron/28.1.0 Safari/537.36" etag="6kickgkn9ZHseIcTg08l" version="23.1.5" type="device">
  <diagram name="Page-1" id="MqYCLOujUnImjremnZP-">
    <mxGraphModel dx="2035" dy="687" grid="1" gridSize="10" guides="1" tooltips="1" connect="1" arrows="1" fold="1" page="1" pageScale="1" pageWidth="850" pageHeight="1100" math="1" shadow="0">
      <root>
        <mxCell id="0" />
        <mxCell id="1" parent="0" />
        <mxCell id="8MsT-PCNFi3kGKuvTsIP-24" value="" style="group;rotation=64.9;" vertex="1" connectable="0" parent="1">
          <mxGeometry x="-340" y="411" width="60" height="60" as="geometry" />
        </mxCell>
        <mxCell id="8MsT-PCNFi3kGKuvTsIP-20" value="" style="endArrow=classic;html=1;rounded=0;" edge="1" parent="8MsT-PCNFi3kGKuvTsIP-24">
          <mxGeometry width="50" height="50" relative="1" as="geometry">
            <mxPoint x="-10" y="15" as="sourcePoint" />
            <mxPoint x="15" y="70" as="targetPoint" />
          </mxGeometry>
        </mxCell>
        <mxCell id="8MsT-PCNFi3kGKuvTsIP-26" value="$$\vec{e_r}$$" style="edgeLabel;html=1;align=center;verticalAlign=middle;resizable=0;points=[];rotation=0;fontSize=12;" vertex="1" connectable="0" parent="8MsT-PCNFi3kGKuvTsIP-20">
          <mxGeometry x="0.6249" y="2" relative="1" as="geometry">
            <mxPoint x="10" y="19" as="offset" />
          </mxGeometry>
        </mxCell>
        <mxCell id="8MsT-PCNFi3kGKuvTsIP-22" value="" style="endArrow=classic;html=1;rounded=0;" edge="1" parent="8MsT-PCNFi3kGKuvTsIP-24">
          <mxGeometry width="50" height="50" relative="1" as="geometry">
            <mxPoint x="-10" y="15" as="sourcePoint" />
            <mxPoint x="45" y="-10" as="targetPoint" />
          </mxGeometry>
        </mxCell>
        <mxCell id="8MsT-PCNFi3kGKuvTsIP-25" value="$$\vec{e_\theta}$$" style="edgeLabel;html=1;align=center;verticalAlign=middle;resizable=0;points=[];rotation=0;fontSize=12;" vertex="1" connectable="0" parent="8MsT-PCNFi3kGKuvTsIP-22">
          <mxGeometry x="0.3154" y="1" relative="1" as="geometry">
            <mxPoint x="28" y="-12" as="offset" />
          </mxGeometry>
        </mxCell>
        <mxCell id="8MsT-PCNFi3kGKuvTsIP-3" value="$$m$$" style="ellipse;whiteSpace=wrap;html=1;fontSize=16;fillColor=#f8cecc;strokeColor=#b85450;strokeWidth=2;" vertex="1" parent="1">
          <mxGeometry x="-365" y="411" width="30" height="30" as="geometry" />
        </mxCell>
        <mxCell id="8MsT-PCNFi3kGKuvTsIP-4" value="" style="endArrow=none;html=1;rounded=0;strokeWidth=3;" edge="1" parent="1" source="8MsT-PCNFi3kGKuvTsIP-3">
          <mxGeometry width="50" height="50" relative="1" as="geometry">
            <mxPoint x="-370" y="450" as="sourcePoint" />
            <mxPoint x="-440" y="240" as="targetPoint" />
          </mxGeometry>
        </mxCell>
        <mxCell id="8MsT-PCNFi3kGKuvTsIP-5" value="$$\ell(t)$$" style="edgeLabel;html=1;align=center;verticalAlign=middle;resizable=0;points=[];fontSize=16;" vertex="1" connectable="0" parent="8MsT-PCNFi3kGKuvTsIP-4">
          <mxGeometry x="0.0838" relative="1" as="geometry">
            <mxPoint x="34" y="8" as="offset" />
          </mxGeometry>
        </mxCell>
        <mxCell id="8MsT-PCNFi3kGKuvTsIP-6" value="$$\mathcal O$$" style="text;html=1;align=center;verticalAlign=middle;whiteSpace=wrap;rounded=0;fontSize=15;" vertex="1" parent="1">
          <mxGeometry x="-470" y="230" width="20" height="30" as="geometry" />
        </mxCell>
        <mxCell id="8MsT-PCNFi3kGKuvTsIP-7" value="" style="verticalLabelPosition=bottom;verticalAlign=top;html=1;shape=mxgraph.basic.arc;startAngle=0.40867705068830384;endAngle=0.5;allowArrows=1;comic=0;" vertex="1" parent="1">
          <mxGeometry x="-560" y="150" width="240" height="240" as="geometry" />
        </mxCell>
        <mxCell id="8MsT-PCNFi3kGKuvTsIP-10" value="$$\theta$$" style="text;html=1;align=center;verticalAlign=middle;whiteSpace=wrap;rounded=0;fontSize=16;" vertex="1" parent="1">
          <mxGeometry x="-435" y="385" width="60" height="30" as="geometry" />
        </mxCell>
        <mxCell id="8MsT-PCNFi3kGKuvTsIP-11" value="" style="endArrow=classic;html=1;rounded=0;" edge="1" parent="1">
          <mxGeometry width="50" height="50" relative="1" as="geometry">
            <mxPoint x="-550" y="320" as="sourcePoint" />
            <mxPoint x="-550" y="400" as="targetPoint" />
          </mxGeometry>
        </mxCell>
        <mxCell id="8MsT-PCNFi3kGKuvTsIP-12" value="$$\vec{g}$$" style="edgeLabel;html=1;align=center;verticalAlign=middle;resizable=0;points=[];fontSize=16;" vertex="1" connectable="0" parent="8MsT-PCNFi3kGKuvTsIP-11">
          <mxGeometry x="0.05" relative="1" as="geometry">
            <mxPoint x="10" as="offset" />
          </mxGeometry>
        </mxCell>
        <mxCell id="8MsT-PCNFi3kGKuvTsIP-14" value="" style="endArrow=classic;html=1;rounded=0;" edge="1" parent="1">
          <mxGeometry width="50" height="50" relative="1" as="geometry">
            <mxPoint x="-440" y="240" as="sourcePoint" />
            <mxPoint x="-380" y="240" as="targetPoint" />
          </mxGeometry>
        </mxCell>
        <mxCell id="8MsT-PCNFi3kGKuvTsIP-18" value="$$\vec{e_x}$$" style="edgeLabel;html=1;align=center;verticalAlign=middle;resizable=0;points=[];fontSize=12;" vertex="1" connectable="0" parent="8MsT-PCNFi3kGKuvTsIP-14">
          <mxGeometry x="-0.1357" y="2" relative="1" as="geometry">
            <mxPoint x="49" y="1" as="offset" />
          </mxGeometry>
        </mxCell>
        <mxCell id="8MsT-PCNFi3kGKuvTsIP-15" value="" style="endArrow=classic;html=1;rounded=0;" edge="1" parent="1">
          <mxGeometry width="50" height="50" relative="1" as="geometry">
            <mxPoint x="-440" y="240" as="sourcePoint" />
            <mxPoint x="-440" y="180" as="targetPoint" />
          </mxGeometry>
        </mxCell>
        <mxCell id="8MsT-PCNFi3kGKuvTsIP-16" value="$$\vec{e_y}$$" style="edgeLabel;html=1;align=center;verticalAlign=middle;resizable=0;points=[];fontSize=12;" vertex="1" connectable="0" parent="8MsT-PCNFi3kGKuvTsIP-15">
          <mxGeometry x="0.0071" y="-1" relative="1" as="geometry">
            <mxPoint x="-1" y="-50" as="offset" />
          </mxGeometry>
        </mxCell>
        <mxCell id="8MsT-PCNFi3kGKuvTsIP-19" value="" style="endArrow=none;html=1;rounded=0;dashed=1;" edge="1" parent="1">
          <mxGeometry width="50" height="50" relative="1" as="geometry">
            <mxPoint x="-440" y="520" as="sourcePoint" />
            <mxPoint x="-440" y="240" as="targetPoint" />
          </mxGeometry>
        </mxCell>
      </root>
    </mxGraphModel>
  </diagram>
</mxfile>
